<?xml version="1.0" encoding="UTF-8"?><svg id="Layer_1" xmlns="http://www.w3.org/2000/svg" xmlns:xlink="http://www.w3.org/1999/xlink" viewBox="0 0 792 500"><defs><style>.cls-1,.cls-2,.cls-3,.cls-4,.cls-5,.cls-6{stroke:#231f20;}.cls-1,.cls-2,.cls-3,.cls-5,.cls-6{stroke-miterlimit:10;stroke-width:2.83px;}.cls-1,.cls-7{fill:none;}.cls-2{fill:url(#Fading_Sky-3);}.cls-3{fill:url(#Fading_Sky-2);}.cls-4{font-family:MyriadPro-Regular, 'Myriad Pro';font-size:53.86px;}.cls-5{fill:url(#Fading_Sky);}.cls-6{fill:#231f20;}.cls-8{fill:url(#linear-gradient);}</style><linearGradient id="linear-gradient" x1="0" y1="250" x2="792" y2="250" gradientUnits="userSpaceOnUse"><stop offset="0" stop-color="#91bdca"/><stop offset="1" stop-color="#1c849a"/></linearGradient><linearGradient id="Fading_Sky" x1="145.15" y1="371.78" x2="209.71" y2="371.78" gradientUnits="userSpaceOnUse"><stop offset="0" stop-color="#2484c6"/><stop offset="1" stop-color="#2484c6" stop-opacity="0"/></linearGradient><linearGradient id="Fading_Sky-2" x1="33.03" y1="371.82" x2="96.52" y2="371.82" xlink:href="#Fading_Sky"/><linearGradient id="Fading_Sky-3" x1="120.56" y1="329.19" x2="209.71" y2="329.19" gradientTransform="translate(.91 -.66) rotate(-.05) skewX(-.4)" xlink:href="#Fading_Sky"/></defs><rect class="cls-8" width="792" height="500"/><line class="cls-7" x1="221.1" y1="23.85" x2="220.33" y2="23.49"/><path class="cls-1" d="M83.58,105.87c-32.43,7.66-26.55,34.72-26.55,34.72,0,0,1.02,29.11,25.28,53.62s35.49,28.09,35.49,28.09c0,0,20.17,13.28,39.57,10.21,19.4-3.06,21.19-8.68,21.19-8.68,0,0,9.7-15.32,7.15-20.94s-34.47-17.87-38.04-15.83-14.81,12.77-14.81,12.77c-41.11-38.3-39.06-42.64-39.06-42.64,0,0,8.43-5.36,10.47-9.7s0-11.74,0-11.74l-20.68-29.87Z"/><rect class="cls-1" x="33.03" y="292.93" width="176.68" height="105.19"/><line class="cls-6" x1="33.03" y1="292.93" x2="121.37" y2="366.11"/><line class="cls-5" x1="209.71" y1="398.12" x2="145.15" y2="345.44"/><line class="cls-3" x1="33.03" y1="398.12" x2="96.52" y2="345.53"/><text class="cls-4" transform="translate(95.29 335.13)"><tspan x="0" y="0">@</tspan></text><line class="cls-2" x1="209.71" y1="292.93" x2="119.72" y2="365.72"/></svg>