<?xml version="1.0" encoding="UTF-8"?><svg id="Layer_1" xmlns="http://www.w3.org/2000/svg" xmlns:xlink="http://www.w3.org/1999/xlink" viewBox="0 0 792.35 462.64"><defs><style>.cls-1{stroke:#016a7f;}.cls-1,.cls-2,.cls-3,.cls-4,.cls-5{fill:none;stroke-miterlimit:10;stroke-width:.71px;}.cls-2{stroke:#1c849a;}.cls-3{stroke:#c4e8f0;}.cls-4{stroke:#07778e;}.cls-5{stroke:#91bdca;}.cls-6{fill:url(#linear-gradient);}</style><linearGradient id="linear-gradient" x1="0" y1="231.32" x2="792" y2="231.32" gradientUnits="userSpaceOnUse"><stop offset="0" stop-color="#2e7993"/><stop offset=".28" stop-color="#2286a8" stop-opacity=".8"/><stop offset=".88" stop-color="#05a9df" stop-opacity=".3"/><stop offset="1" stop-color="#00b1eb" stop-opacity=".2"/></linearGradient></defs><polygon class="cls-1" points="747.68 427.73 663.76 359.81 698.14 248.82 747.68 427.73"/><polygon class="cls-2" points="698.4 248.82 663.76 361.29 541.98 334.59 553.07 83.83 654.4 111.77 698.4 248.82"/><polygon class="cls-3" points="792 34.54 792 100.18 758.86 94.24 758.55 94.19 758.22 94.13 654.14 111.71 653.72 111.78 553.06 84.03 552.39 83.84 571.63 29.13 659.92 15.9 744.94 37.65 792 34.54"/><polygon class="cls-5" points="758.9 94.13 698.4 248.82 654.4 111.77 758.9 94.13"/><polygon class="cls-4" points="792 100.04 792 415.94 748.34 428.94 698.49 248.6 698.4 248.28 758.86 94.24 758.9 94.13 792 100.04"/><rect class="cls-6" width="792" height="462.64"/></svg>