<?xml version="1.0" encoding="UTF-8"?>
<svg id="Layer_1" data-name="Layer 1" xmlns="http://www.w3.org/2000/svg" xmlns:xlink="http://www.w3.org/1999/xlink" viewBox="0 0 792 500.87">
  <defs>
    <style>
      .cls-1 {
        stroke-width: .42px;
      }

      .cls-1, .cls-2 {
        stroke: #1c849a;
      }

      .cls-1, .cls-2, .cls-3, .cls-4, .cls-5, .cls-6, .cls-7 {
        fill: none;
      }

      .cls-1, .cls-2, .cls-3, .cls-5, .cls-6, .cls-7 {
        stroke-miterlimit: 10;
      }

      .cls-8 {
        fill: #1b849a;
      }

      .cls-2, .cls-5, .cls-7 {
        stroke-width: .43px;
      }

      .cls-9 {
        fill: #90bdca;
      }

      .cls-10 {
        fill: #05778e;
      }

      .cls-3 {
        stroke: #07778e;
        stroke-width: .42px;
      }

      .cls-11 {
        fill: #c4e8f0;
      }

      .cls-5 {
        stroke: #c4e8f0;
      }

      .cls-6 {
        stroke: #016a7f;
        stroke-width: .42px;
      }

      .cls-12 {
        fill: #040808;
      }

      .cls-13 {
        fill: url(#New_Pattern_4);
      }

      .cls-7 {
        stroke: #91bdca;
      }

      .cls-14 {
        fill: #006a7f;
      }
    </style>
    <pattern id="New_Pattern_4" data-name="New Pattern 4" x="0" y="0" width="200" height="200" patternTransform="translate(0 .87)" patternUnits="userSpaceOnUse" viewBox="0 0 200 200">
      <g>
        <rect class="cls-4" width="200" height="200"/>
        <g>
          <polygon class="cls-2" points="144.04 205.49 136.77 229.09 111.22 223.48 113.54 170.87 134.8 176.73 144.04 205.49"/>
          <polygon class="cls-5" points="188.55 169.32 176.23 176.54 156.59 173.03 134.66 176.73 113.4 170.87 117.44 159.39 135.96 156.61 153.8 161.18 169.66 160.13 188.55 169.32"/>
          <line class="cls-4" x1="169.8" y1="160.13" x2="169.68" y2="160.07"/>
          <polygon class="cls-7" points="156.73 173.03 144.04 205.49 134.8 176.73 156.73 173.03"/>
          <polygon class="cls-3" points="176.37 176.53 172.5 237.93 154.52 243.28 144.04 205.37 156.73 173.03 176.37 176.53"/>
          <polygon class="cls-1" points="188.7 169.52 179.65 224.1 172.5 237.6 176.37 176.66 188.7 169.52"/>
        </g>
        <g>
          <polygon class="cls-2" points="44.04 205.49 36.77 229.09 11.22 223.48 13.54 170.87 34.8 176.73 44.04 205.49"/>
          <polygon class="cls-5" points="88.55 169.32 76.23 176.54 56.59 173.03 34.66 176.73 13.4 170.87 17.44 159.39 35.96 156.61 53.8 161.18 69.66 160.13 88.55 169.32"/>
          <line class="cls-4" x1="69.8" y1="160.13" x2="69.68" y2="160.07"/>
          <polygon class="cls-7" points="56.73 173.03 44.04 205.49 34.8 176.73 56.73 173.03"/>
          <polygon class="cls-3" points="76.37 176.53 72.5 237.93 54.52 243.28 44.04 205.37 56.73 173.03 76.37 176.53"/>
          <polygon class="cls-1" points="88.7 169.52 79.65 224.1 72.5 237.6 76.37 176.66 88.7 169.52"/>
        </g>
        <g>
          <polygon class="cls-6" points="204.38 143.03 186.77 128.78 193.98 105.49 204.38 143.03"/>
          <polygon class="cls-2" points="194.04 105.49 186.77 129.09 161.22 123.48 163.54 70.87 184.8 76.73 194.04 105.49"/>
          <polygon class="cls-5" points="238.55 69.32 226.23 76.54 206.59 73.03 184.66 76.73 163.4 70.87 167.44 59.39 185.96 56.61 203.8 61.18 219.66 60.13 238.55 69.32"/>
          <polygon class="cls-7" points="206.73 73.03 194.04 105.49 184.8 76.73 206.73 73.03"/>
          <polygon class="cls-3" points="226.37 76.53 222.5 137.93 204.52 143.28 194.04 105.37 206.73 73.03 226.37 76.53"/>
        </g>
        <g>
          <polygon class="cls-6" points="104.38 143.03 86.77 128.78 93.98 105.49 104.38 143.03"/>
          <polygon class="cls-2" points="94.04 105.49 86.77 129.09 61.22 123.48 63.54 70.87 84.8 76.73 94.04 105.49"/>
          <polygon class="cls-5" points="138.55 69.32 126.23 76.54 106.59 73.03 84.66 76.73 63.4 70.87 67.44 59.39 85.96 56.61 103.8 61.18 119.66 60.13 138.55 69.32"/>
          <line class="cls-4" x1="119.8" y1="60.13" x2="119.68" y2="60.07"/>
          <polygon class="cls-7" points="106.73 73.03 94.04 105.49 84.8 76.73 106.73 73.03"/>
          <polygon class="cls-3" points="126.37 76.53 122.5 137.93 104.52 143.28 94.04 105.37 106.73 73.03 126.37 76.53"/>
          <polygon class="cls-1" points="138.7 69.52 129.65 124.1 122.5 137.6 126.37 76.66 138.7 69.52"/>
        </g>
        <g>
          <polygon class="cls-6" points="4.38 143.03 -13.23 128.78 -6.02 105.49 4.38 143.03"/>
          <polygon class="cls-5" points="38.55 69.32 26.23 76.54 6.59 73.03 -15.34 76.73 -36.6 70.87 -32.56 59.39 -14.04 56.61 3.8 61.18 19.66 60.13 38.55 69.32"/>
          <line class="cls-4" x1="19.8" y1="60.13" x2="19.68" y2="60.07"/>
          <polygon class="cls-7" points="6.73 73.03 -5.96 105.49 -15.2 76.73 6.73 73.03"/>
          <polygon class="cls-3" points="26.37 76.53 22.5 137.93 4.52 143.28 -5.96 105.37 6.73 73.03 26.37 76.53"/>
          <polygon class="cls-1" points="38.7 69.52 29.65 124.1 22.5 137.6 26.37 76.66 38.7 69.52"/>
        </g>
        <g>
          <polygon class="cls-6" points="154.38 43.03 136.77 28.78 143.98 5.49 154.38 43.03"/>
          <polygon class="cls-2" points="144.04 5.49 136.77 29.09 111.22 23.48 113.54 -29.13 134.8 -23.27 144.04 5.49"/>
          <polygon class="cls-7" points="156.73 -26.97 144.04 5.49 134.8 -23.27 156.73 -26.97"/>
          <polygon class="cls-3" points="176.37 -23.47 172.5 37.93 154.52 43.28 144.04 5.37 156.73 -26.97 176.37 -23.47"/>
          <polygon class="cls-1" points="188.7 -30.48 179.65 24.1 172.5 37.6 176.37 -23.34 188.7 -30.48"/>
        </g>
        <g>
          <polygon class="cls-6" points="54.38 43.03 36.77 28.78 43.98 5.49 54.38 43.03"/>
          <polygon class="cls-2" points="44.04 5.49 36.77 29.09 11.22 23.48 13.54 -29.13 34.8 -23.27 44.04 5.49"/>
          <polygon class="cls-7" points="56.73 -26.97 44.04 5.49 34.8 -23.27 56.73 -26.97"/>
          <polygon class="cls-3" points="76.37 -23.47 72.5 37.93 54.52 43.28 44.04 5.37 56.73 -26.97 76.37 -23.47"/>
          <polygon class="cls-1" points="88.7 -30.48 79.65 24.1 72.5 37.6 76.37 -23.34 88.7 -30.48"/>
        </g>
      </g>
    </pattern>
  </defs>
  <rect class="cls-12" y=".87" width="792" height="500"/>
  <rect class="cls-13" width="792" height="500"/>
  <polygon class="cls-8" points="14.71 249.03 0 296.78 0 203.22 14.71 249.03"/>
  <polygon class="cls-14" points="58.7 408.74 0 360.97 0 296.78 14.71 249.03 58.7 408.74"/>
  <polygon class="cls-11" points="202.21 97.2 150.46 127.52 68 112.75 0 124.24 0 48.59 56.3 63 122.89 58.6 202.21 97.2"/>
  <line class="cls-4" x1="122.89" y1="58.6" x2="122.36" y2="58.35"/>
  <polygon class="cls-9" points="68 112.75 14.71 249.03 0 203.22 0 124.24 68 112.75"/>
  <polygon class="cls-8" points="202.21 97.2 163.66 329.82 134.24 385.33 133.71 386.33 133.23 386.48 149.68 127.64 150.02 127.44 202.21 97.2"/>
  <polygon class="cls-10" points="150.46 127.52 134.24 385.33 133.71 386.33 133.23 386.48 58.7 408.74 14.71 249.03 68 112.75 150.02 127.44 150.46 127.52"/>
</svg>